<svg version="1.1" viewBox="0 0 100 100" xmlns="http://www.w3.org/2000/svg" xmlns:xlink="http://www.w3.org/1999/xlink">
    <defs>
        <linearGradient id="a" x1="38.108" x2="61.879" y1="39.126" y2="67.41" gradientUnits="userSpaceOnUse">
            <stop stop-color="#FBD57F" offset="0"/>
            <stop stop-color="#e09f37" offset=".62652"/>
            <stop stop-color="#D17F0D" offset="1"/>
        </linearGradient>
        <radialGradient id="b" cx="50" cy="51.994" r="15" gradientTransform="matrix(3.368 0 8.2567e-7 3.5069 -118.4 -130.34)" gradientUnits="userSpaceOnUse">
            <stop stop-color="#FBD57F" offset="0"/>
            <stop stop-color="#e3a323" offset=".29997"/>
            <stop stop-color="#e4c342" offset=".62129"/>
            <stop stop-color="#ff9400" offset="1"/>
        </radialGradient>
        <radialGradient id="h" cx="42.394" cy="49.076" r="15" gradientTransform="matrix(-3.0003 0 -7.3553e-7 -4.8384 201.48 262.26)" gradientUnits="userSpaceOnUse" xlink:href="#a"/>
        <radialGradient id="c" cx="50" cy="51.994" r="15" gradientTransform="matrix(3.368 0 8.2567e-7 3.5069 -118.4 -130.34)" gradientUnits="userSpaceOnUse" xlink:href="#a"/>
        <radialGradient id="f" cx="40.186" cy="45.967" r="15" gradientTransform="matrix(3.2249 0 7.9058e-7 3.4836 -79.075 -88.827)" gradientUnits="userSpaceOnUse" xlink:href="#a"/>
        <radialGradient id="e" cx="40.237" cy="57.547" r="15" gradientTransform="matrix(0 1.7676 -3.4836 4.3333e-7 266.46 -21.953)" gradientUnits="userSpaceOnUse" xlink:href="#a"/>
        <radialGradient id="g" cx="40.412" cy="55.998" r="15" gradientTransform="matrix(0 -4.479 2.5882 -1.098e-6 -111.9 230.4)" gradientUnits="userSpaceOnUse" xlink:href="#a"/>
        <radialGradient id="d" cx="36.569" cy="48.325" r="15" gradientTransform="matrix(0 -2.0998 -3.4836 -5.1476e-7 193.71 102.32)" gradientUnits="userSpaceOnUse" xlink:href="#a"/>
    </defs>
    <g transform="translate(-.30133 .54918)" fill="none" stroke="#f5c13e" stroke-opacity=".59216" stroke-width="2">
        <path d="m35.681 49.022h-24.109z"/>
        <path d="m57.07 42.354 31.567-31.567z"/>
        <path d="m9.0289 52.78 39.442 39.442z"/>
        <path d="m50.689 65.912v20.814z"/>
        <path d="m87.014 22.636v20.814z"/>
        <path d="m13.599 10.865v39.339z"/>
    </g>
    <g clip-rule="evenodd" fill-rule="evenodd">
        <path d="m88.58 23.469 1.7324-5.3284c0.13245-0.4139 0.46492-0.69148 0.8813-0.75315l5.4263-0.79482c0.89623-0.12748 1.5873-0.76943 1.8096-1.6659 0.22237-0.89664-0.0904-1.7951-0.82019-2.3447l-4.4125-3.3286c-0.34137-0.25689-0.50136-0.66348-0.42715-1.0928l0.94819-5.535c0.15772-0.91154-0.21717-1.7862-0.98755-2.2744-0.76454-0.49502-1.6924-0.46315-2.4282 0.077399l-5.011 3.6768-5.439-2.9504c-0.79871-0.4339-1.7223-0.33719-2.4163 0.25938-0.69392 0.59643-0.9535 1.5085-0.68634 2.3907l1.6515 5.3543c0.12873 0.41528 0.02234 0.84035-0.28299 1.1422l-3.945 3.9094c-0.65256 0.64582-0.84698 1.5796-0.51133 2.4373 0.33566 0.85773 1.103 1.3983 2.0077 1.4006l5.4801 0.03684c0.42688 0.0029 0.78568 0.23247 0.97026 0.6243l2.402 5.0411c0.39776 0.83386 1.199 1.3068 2.1058 1.2438 0.93249-0.05837 1.6654-0.64444 1.9524-1.5259z" fill="url(#h)" stop-color="#000000" stroke-width=".018522" style="-inkscape-stroke:none;font-variation-settings:normal"/>
        <path d="m1.5315 53.08 5.3284 1.7324c0.4139 0.13245 0.69148 0.46492 0.75315 0.8813l0.79482 5.4263c0.12748 0.89623 0.76943 1.5873 1.6659 1.8096 0.89664 0.22237 1.7951-0.0904 2.3447-0.82019l3.3286-4.4125c0.25689-0.34137 0.66348-0.50136 1.0928-0.42715l5.535 0.94819c0.91154 0.15772 1.7862-0.21717 2.2744-0.98755 0.49502-0.76454 0.46315-1.6924-0.0774-2.4282l-3.6768-5.011 2.9504-5.439c0.4339-0.79871 0.33719-1.7223-0.25938-2.4163-0.59642-0.69392-1.5085-0.9535-2.3907-0.68634l-5.3543 1.6515c-0.41528 0.12873-0.84035 0.02234-1.1422-0.28299l-3.9094-3.945c-0.64582-0.65256-1.5796-0.84698-2.4373-0.51133-0.85773 0.33566-1.3983 1.103-1.4006 2.0077l-0.03684 5.4801c-0.0029 0.42688-0.23247 0.78568-0.6243 0.97026l-5.0411 2.402c-0.83386 0.39776-1.3068 1.199-1.2438 2.1058 0.05837 0.93249 0.64444 1.6654 1.5259 1.9524z" fill="url(#g)" stop-color="#000000" stroke-width=".018522" style="-inkscape-stroke:none;font-variation-settings:normal"/>
        <path d="m48.598 83.103-1.2473 3.8364c-0.09537 0.29801-0.33474 0.49787-0.63453 0.54227l-3.907 0.57227c-0.64528 0.09179-1.1428 0.55399-1.3029 1.1995-0.16011 0.64558 0.06509 1.2924 0.59054 1.6882l3.177 2.3966c0.24579 0.18496 0.36098 0.4777 0.30755 0.78684l-0.6827 3.9852c-0.11356 0.65631 0.15636 1.2861 0.71104 1.6376 0.55047 0.35643 1.2185 0.33349 1.7483-0.05571l3.6079-2.6473 3.9161 2.1243c0.57507 0.31242 1.2401 0.24278 1.7398-0.18675 0.49962-0.42943 0.68652-1.0861 0.49416-1.7213l-1.1891-3.8551c-0.09268-0.299-0.01608-0.60505 0.20375-0.8224l2.8404-2.8148c0.46984-0.46499 0.60983-1.1373 0.36816-1.7549-0.24168-0.61757-0.79415-1.0068-1.4455-1.0085l-3.9456-0.02652c-0.30736-2e-3 -0.56569-0.16738-0.69859-0.44949l-1.7294-3.6296c-0.28639-0.60038-0.86328-0.9409-1.5162-0.89551-0.6714 0.04203-1.1991 0.464-1.4057 1.0986z" fill="url(#f)"/>
        <path d="m94.529 47.084-3.8364-1.2473c-0.29801-0.09537-0.49787-0.33474-0.54227-0.63453l-0.57227-3.907c-0.09179-0.64528-0.55399-1.1428-1.1995-1.3029-0.64558-0.16011-1.2924 0.06509-1.6882 0.59054l-2.3966 3.177c-0.18496 0.24579-0.4777 0.36098-0.78684 0.30755l-3.9852-0.6827c-0.65631-0.11356-1.2861 0.15636-1.6376 0.71104-0.35643 0.55047-0.33349 1.2185 0.05571 1.7483l2.6473 3.6079-2.1243 3.9161c-0.31242 0.57507-0.24278 1.2401 0.18675 1.7398 0.42943 0.49962 1.0861 0.68652 1.7213 0.49416l3.8551-1.1891c0.299-0.09268 0.60505-0.01608 0.8224 0.20375l2.8148 2.8404c0.46499 0.46984 1.1373 0.60983 1.7549 0.36816 0.61757-0.24168 1.0068-0.79415 1.0085-1.4455l0.02652-3.9456c2e-3 -0.30736 0.16738-0.56569 0.44949-0.69859l3.6296-1.7294c0.60038-0.28639 0.9409-0.86328 0.89551-1.5162-0.04203-0.6714-0.464-1.1991-1.0986-1.4057z" fill="url(#e)"/>
        <path d="m21.784 13.358-3.8364 1.2473c-0.29801 0.09537-0.49787 0.33474-0.54227 0.63453l-0.57227 3.907c-0.09179 0.64528-0.55399 1.1428-1.1995 1.3029-0.64558 0.16011-1.2925-0.06509-1.6882-0.59054l-2.3966-3.177c-0.18496-0.24579-0.4777-0.36098-0.78684-0.30755l-3.9852 0.6827c-0.65631 0.11356-1.2861-0.15636-1.6376-0.71104-0.35643-0.55047-0.33349-1.2185 0.05571-1.7483l2.6473-3.6079-2.1243-3.9161c-0.31242-0.57507-0.24278-1.2401 0.18675-1.7398 0.42943-0.49962 1.0861-0.68652 1.7213-0.49416l3.8551 1.1891c0.299 0.09268 0.60505 0.01608 0.8224-0.20375l2.8148-2.8404c0.46499-0.46984 1.1373-0.60983 1.7549-0.36816 0.61757 0.24168 1.0068 0.79415 1.0085 1.4455l0.02652 3.9456c2e-3 0.30736 0.16738 0.56569 0.44949 0.69859l3.6296 1.7294c0.60038 0.28639 0.9409 0.86328 0.89551 1.5162-0.04203 0.6714-0.464 1.1991-1.0986 1.4057z" fill="url(#d)"/>
    </g>
    <g transform="matrix(1.6667 0 0 1.6674 -33.032 -37.241)" stroke-width=".011111">
        <path d="m53.922 45.492-3.9163-8.4915-3.9287 8.4915c-0.0497 0.1243-0.1243 0.2487-0.1865 0.3606l-2.1881-2.1882c-0.277-0.2753-0.652-0.4293-1.0426-0.4282-0.3905 0.0012-0.7646 0.1574-1.0399 0.4344s-0.4294 0.652-0.4282 1.0425c0.0012 0.3906 0.1574 0.7647 0.4344 1.04l2.1757 2.1633-0.2486 0.1243-0.0622 0.0249-8.4915 3.9287 8.4915 3.9287 0.2984 0.1368-2.1633 2.1881c-0.2753 0.2753-0.43 0.6488-0.43 1.0381 0 0.3894 0.1547 0.7628 0.43 1.0382 0.2753 0.2753 0.6488 0.43 1.0381 0.43 0.3894 0 0.7628-0.1547 1.0382-0.43l2.1881-2.1882 0.1865 0.373 3.9287 8.4791 3.9163-8.4915 0.1616-0.2984 2.1136 2.126c0.2753 0.2769 0.6494 0.4332 1.0399 0.4344 0.3906 0.0011 0.7656-0.1529 1.0426-0.4282 0.2769-0.2753 0.4332-0.6494 0.4344-1.04 0.0011-0.3905-0.1529-0.7655-0.4282-1.0425l-2.1384-2.1384 0.3729-0.1865 8.4791-3.9287-8.4915-3.9287-0.3605-0.1741 2.1384-2.1508c0.2753-0.2754 0.43-0.6488 0.43-1.0382 0-0.3893-0.1547-0.7628-0.43-1.0381-0.1364-0.1363-0.2982-0.2445-0.4763-0.3182-0.1782-0.0738-0.3691-0.1118-0.5619-0.1118-0.3893 0-0.7628 0.1547-1.0381 0.43l-2.126 2.1136c-0.0478-0.0817-0.0934-0.1646-0.1367-0.2487zm-3.9287 0.4476-0.5222 1.1189c-0.9004 1.9486-2.465 3.5132-4.4136 4.4136l-1.1189 0.5222 1.1189 0.5222c1.9486 0.9004 3.5132 2.4649 4.4136 4.4135l0.5222 1.119 0.5097-1.119c0.9035-1.9507 2.4728-3.5155 4.4261-4.4135l1.1189-0.5222-1.1189-0.5222c-1.9533-0.898-3.5226-2.4628-4.4261-4.4136z" clip-rule="evenodd" fill="url(#b)" fill-rule="evenodd"/>
        <g fill="url(#c)">
            <path d="m62.7 41.339c0.2769-0.277 0.4325-0.6526 0.4325-1.0443s-0.1556-0.7674-0.4325-1.0444c-0.277-0.2769-0.6527-0.4326-1.0444-0.4326s-0.7673 0.1557-1.0443 0.4326l-0.6962 0.7087c-0.1364 0.1363-0.2445 0.2982-0.3183 0.4763s-0.1118 0.369-0.1118 0.5618 0.038 0.3837 0.1118 0.5618c0.0738 0.1782 0.1819 0.34 0.3183 0.4763 0.1363 0.1364 0.2981 0.2445 0.4762 0.3183 0.1782 0.0738 0.3691 0.1118 0.5619 0.1118s0.3837-0.038 0.5618-0.1118 0.34-0.1819 0.4763-0.3183z"/>
            <path d="m40.222 42.272c-0.5594 0.5719-1.4919 0.5719-2.0762 0l-0.6963-0.6963c-0.1371-0.1371-0.2459-0.2999-0.3201-0.4791s-0.1124-0.3713-0.1124-0.5652c0-0.194 0.0382-0.386 0.1124-0.5652s0.183-0.342 0.3201-0.4792c0.277-0.2769 0.6527-0.4325 1.0444-0.4325 0.1939 0 0.386 0.0382 0.5652 0.1124s0.342 0.183 0.4791 0.3201l0.6963 0.7087c0.5719 0.5719 0.5719 1.4919 0 2.0763z"/>
            <path d="m40.222 61.716c-0.1362-0.1365-0.2981-0.2447-0.4762-0.3186-0.1781-0.0738-0.3691-0.1119-0.5619-0.1119s-0.3838 0.0381-0.5619 0.1119c-0.1781 0.0739-0.34 0.1821-0.4762 0.3186l-0.6963 0.6962c-0.1371 0.1372-0.2459 0.3-0.3201 0.4792s-0.1124 0.3712-0.1124 0.5652c0 0.1939 0.0382 0.386 0.1124 0.5652s0.183 0.342 0.3201 0.4791c0.1372 0.1372 0.3 0.2459 0.4792 0.3202 0.1792 0.0742 0.3712 0.1124 0.5652 0.1124 0.1939 0 0.386-0.0382 0.5652-0.1124 0.1792-0.0743 0.342-0.183 0.4791-0.3202l0.6963-0.7086c0.5719-0.5719 0.5719-1.492 0-2.0763z"/>
            <path d="m62.7 62.648c0.2769 0.277 0.4325 0.6527 0.4325 1.0444s-0.1556 0.7674-0.4325 1.0443c-0.277 0.277-0.6527 0.4326-1.0444 0.4326s-0.7673-0.1556-1.0443-0.4326l-0.6962-0.7086c-0.1364-0.1364-0.2445-0.2982-0.3183-0.4763-0.0738-0.1782-0.1118-0.3691-0.1118-0.5619s0.038-0.3837 0.1118-0.5618 0.1819-0.34 0.3183-0.4763c0.1363-0.1363 0.2981-0.2445 0.4762-0.3182 0.1782-0.0738 0.3691-0.1118 0.5619-0.1118s0.3837 0.038 0.5618 0.1118c0.1781 0.0737 0.34 0.1819 0.4763 0.3182z"/>
        </g>
    </g>
</svg>
