<svg width="55" height="55" version="1.1" viewBox="0 0 14.552 14.552" xmlns="http://www.w3.org/2000/svg">
 <g transform="scale(.26458)" fill="currentColor">
  <path d="m29 17c-4.87-0.016-7.9415 3.4995-8 8 0 1.846 0.634 3.542 1.688 4.897 1.2592 1.6856 3.4469 2.7789 5.313 3.033 0.82721 0.14691 1.1875 0.10527 2 0 1.458-0.183 2.792-0.759 3.898-1.619 1.8455-1.3273 3.0715-4.0458 3.101-6.311-0.016478-4.4809-3.959-7.9475-8-8zm0 14c-3.309 0-6-2.691-6-6s2.691-6 6-6 6 2.691 6 6-2.691 6-6 6z"/>
 </g>
</svg>
