<svg width="55" height="55" version="1.1" viewBox="0 0 14.552 14.552" xmlns="http://www.w3.org/2000/svg">
 <g transform="scale(.26458)" fill="currentColor">
  <path d="m29 17c-1.846 0-3.542 0.634-4.898 1.688l-7.669-7.669c0.352-0.595 0.567-1.279 0.567-2.019 0-2.206-1.794-4-4-4s-4 1.794-4 4 1.794 4 4 4c0.74 0 1.424-0.215 2.019-0.567l7.669 7.669c-1.054 1.356-1.688 3.052-1.688 4.898s0.634 3.542 1.688 4.897c1.2592 1.6856 3.4469 2.7789 5.313 3.033v10.16c-2.833 0.478-5 2.942-5 5.91 0 3.309 2.691 6 6 6s6-2.691 6-6c0-2.967-2.167-5.431-5-5.91v-10.16c1.458-0.183 2.792-0.759 3.898-1.619l7.669 7.669c-0.353 0.596-0.568 1.28-0.568 2.02 0 2.206 1.794 4 4 4s4-1.794 4-4-1.794-4-4-4c-0.74 0-1.424 0.215-2.019 0.567l-7.669-7.669c1.054-1.356 1.688-3.052 1.688-4.898-0.37585-4.4888-3.959-7.9475-8-8zm-18-8c0-1.103 0.897-2 2-2s2 0.897 2 2-0.897 2-2 2-2-0.897-2-2zm22 40c0 2.206-1.794 4-4 4s-4-1.794-4-4 1.794-4 4-4 4 1.794 4 4zm-4-18c-3.309 0-6-2.691-6-6s2.691-6 6-6 6 2.691 6 6-2.691 6-6 6zm18 10c0 1.103-0.897 2-2 2s-2-0.897-2-2 0.897-2 2-2 2 0.897 2 2z"/>
 </g>
</svg>
