<svg width="55" height="55" version="1.1" viewBox="0 0 14.552 14.552" xmlns="http://www.w3.org/2000/svg">
 <g transform="scale(.26458)" fill="currentColor">
  <path d="m29 17c-1.846 0-3.542 0.634-4.898 1.688l-7.669-7.669c0.352-0.595 0.567-1.279 0.567-2.019 0-2.206-1.794-4-4-4s-4 1.794-4 4 1.794 4 4 4c0.74 0 1.424-0.215 2.019-0.567l7.669 7.669c-1.054 1.356-1.688 3.052-1.688 4.898s0.634 3.542 1.688 4.897c1.2592 1.6856 3.4469 2.7789 5.313 3.033 0.82721 0.14691 1.1875 0.10527 2 0 1.458-0.183 2.792-0.759 3.898-1.619 1.8455-1.3273 3.0715-4.0458 3.101-6.311-0.016478-4.4809-3.959-7.9475-8-8zm-18-8c0-1.103 0.897-2 2-2s2 0.897 2 2-0.897 2-2 2-2-0.897-2-2zm18 22c-3.309 0-6-2.691-6-6s2.691-6 6-6 6 2.691 6 6-2.691 6-6 6z"/>
 </g>
</svg>
