<svg version="1.1" viewBox="0 0 100 100" xmlns="http://www.w3.org/2000/svg" xmlns:xlink="http://www.w3.org/1999/xlink">
    <defs>
        <linearGradient id="n" x1="38.108" x2="61.879" y1="39.126" y2="67.41" gradientUnits="userSpaceOnUse">
            <stop stop-color="#FBD57F" offset="0"/>
            <stop stop-color="#e3a323" offset=".29997"/>
            <stop stop-color="#e4c342" offset=".62129"/>
            <stop stop-color="#ff9400" offset="1"/>
        </linearGradient>
        <linearGradient id="a" x1="38.108" x2="61.879" y1="39.126" y2="67.41" gradientUnits="userSpaceOnUse">
            <stop stop-color="#FBD57F" offset="0"/>
            <stop stop-color="#e09f37" offset=".62652"/>
            <stop stop-color="#D17F0D" offset="1"/>
        </linearGradient>
        <radialGradient id="b" cx="50" cy="51.994" r="15" gradientTransform="matrix(3.368 0 8.2567e-7 3.5069 -118.4 -130.34)" gradientUnits="userSpaceOnUse" xlink:href="#n"/>
        <radialGradient id="m" cx="52.801" cy="49.401" r="15" gradientTransform="matrix(3.368 0 8.2567e-7 3.5069 -118.32 -129.38)" gradientUnits="userSpaceOnUse" xlink:href="#a"/>
        <radialGradient id="l" cx="54.454" cy="51.994" r="15" gradientTransform="matrix(3.368 0 8.2567e-7 3.5069 -118.4 -130.34)" gradientUnits="userSpaceOnUse" xlink:href="#a"/>
        <radialGradient id="k" cx="52.429" cy="19.648" r="15" gradientTransform="matrix(3.368 2.4068e-7 0 .95673 -118.4 -2.4784)" gradientUnits="userSpaceOnUse" xlink:href="#a"/>
        <radialGradient id="j" cx="49.998" cy="50.267" r="15" gradientTransform="matrix(2.8184 0 6.9092e-7 2.9346 -91.21 -106.23)" gradientUnits="userSpaceOnUse" xlink:href="#a"/>
        <radialGradient id="i" cx="46.862" cy="51.475" r="15" gradientTransform="matrix(3.368 0 8.2567e-7 3.5069 -117.58 -130.34)" gradientUnits="userSpaceOnUse" xlink:href="#a"/>
        <radialGradient id="h" cx="33.808" cy="52.657" r="15" gradientTransform="matrix(-3.368 0 -8.2567e-7 -3.5069 154.07 233.7)" gradientUnits="userSpaceOnUse" xlink:href="#a"/>
        <radialGradient id="g" cx="50" cy="51.994" r="15" gradientTransform="matrix(3.368 0 8.2567e-7 3.5069 -118.54 -129.61)" gradientUnits="userSpaceOnUse" xlink:href="#a"/>
        <radialGradient id="f" cx="48.347" cy="58.767" r="15" gradientTransform="matrix(3.368 0 8.2567e-7 3.5069 -118.4 -130.34)" gradientUnits="userSpaceOnUse" xlink:href="#a"/>
        <radialGradient id="e" cx="49.344" cy="72.57" r="15" gradientTransform="matrix(3.368 1.1125e-6 0 .72099 -116.81 31.98)" gradientUnits="userSpaceOnUse" xlink:href="#a"/>
        <radialGradient id="d" cx="53.172" cy="56.336" r="15" gradientTransform="matrix(3.368 0 8.2567e-7 3.5069 -117.4 -130.55)" gradientUnits="userSpaceOnUse" xlink:href="#a"/>
        <radialGradient id="c" cx="52.531" cy="52.869" r="15" gradientTransform="matrix(3.368 0 8.2567e-7 3.5069 -118.28 -130.75)" gradientUnits="userSpaceOnUse" xlink:href="#a"/>
    </defs>
    <g transform="translate(-.30133 .54918)" fill="none" stroke-width=".26458">
        <g stroke="#f5c23f" stroke-opacity=".59">
            <g stroke-width="1.5">
                <line x1="50.182" x2="77.182" y1="18.017" y2="23.017"/>
                <line x1="88.577" x2="72.452" y1="32.62" y2="21.62"/>
                <line x1="50.638" x2="63.513" y1="18.43" y2="7.4298"/>
                <line x1="17.382" x2="28.382" y1="90.575" y2="74.575"/>
                <line x1="49.259" x2="26.577" y1="89.78" y2="74.633"/>
                <line x1="29.107" x2="15.982" y1="77.451" y2="51.451"/>
            </g>
            <g stroke-width="2">
                <line x1="57.06" x2="93.06" y1="52.098" y2="52.098"/>
                <line x1="54.264" x2="77.264" y1="48.252" y2="23.252"/>
                <line x1="79.334" x2="55.334" y1="79.787" y2="57.787"/>
                <line x1="47.478" x2="23.478" y1="49.601" y2="25.601"/>
                <line x1="16.192" x2="43.199" y1="51.621" y2="52.189"/>
                <line x1="27.977" x2="46.977" y1="75.259" y2="54.259"/>
            </g>
        </g>
        <g clip-rule="evenodd" fill-rule="evenodd">
            <path d="m91.456 47.003-1.75 1.7382c-0.1351 0.1354-0.3248 0.1767-0.5064 0.1162l-2.3646-0.7921c-0.3899-0.1323-0.797-0.021-1.0633 0.2855-0.2664 0.3065-0.3152 0.7227-0.126 1.0868l1.1434 2.2036c0.0886 0.1703 0.074 0.3624-0.0404 0.5157l-1.4714 1.9788c-0.243 0.3256-0.2618 0.745-0.044 1.0932 0.2141 0.3498 0.598 0.5261 1.0036 0.4636l2.7606-0.4231 1.6354 2.2641c0.24 0.3328 0.6349 0.4827 1.0344 0.3898 0.3994-0.0928 0.6839-0.3979 0.7482-0.7983l0.3777-2.4368c0.029-0.1891 0.1557-0.3342 0.3391-0.3906l2.3724-0.7312c0.3923-0.1207 0.6546-0.4474 0.6861-0.8523 0.0316-0.4048-0.1747-0.773-0.5425-0.958l-2.2234-1.1293c-0.1732-0.088-0.2742-0.251-0.2725-0.4423l0.0108-2.4665c0.0016-0.4081-0.2318-0.7567-0.6132-0.9164-0.3911-0.1669-0.8043-0.086-1.094 0.2014z" fill="url(#c)"/>
            <path d="m51.367 13.16-1.9397 1.6916c-0.14979 0.1318-0.3502 0.162-0.53513 0.08669l-2.4085-0.98457c-0.39698-0.1641-0.82843-0.07573-1.1264 0.22543-0.29807 0.30108-0.37706 0.73111-0.2046 1.1231l1.0415 2.3717c0.08075 0.18326 0.05255 0.38225-0.0769 0.53421l-1.6658 1.9609c-0.27497 0.32258-0.323 0.75797-0.11966 1.1353 0.19924 0.37865 0.5871 0.58818 1.0135 0.55061l2.9031-0.25397 1.5497 2.468c0.22744 0.36267 0.62852 0.54551 1.0507 0.4758 0.42216-0.06962 0.73906-0.36802 0.83303-0.78064l0.55797-2.5116c0.04301-0.19497 0.18468-0.33756 0.37957-0.38375l2.5196-0.60107c0.41656-0.09908 0.71178-0.42158 0.77203-0.84098 0.06025-0.41932-0.12979-0.81671-0.50015-1.0341l-2.2388-1.3262c-0.17439-0.10334-0.26853-0.27999-0.2538-0.47906l0.17799-2.5674c0.02929-0.42476-0.1902-0.80349-0.57655-0.99562-0.39589-0.20016-0.83161-0.14384-1.1526 0.13581z" fill="url(#j)"/>
            <path d="m20.696 23.589 0.6138 1.6926c0.0482 0.1311 0.0173 0.2694-0.0785 0.3711l-1.2505 1.3228c-0.2073 0.2175-0.2586 0.5213-0.1374 0.7918s0.3818 0.4306 0.6811 0.417l1.8103-0.0806c0.14-0.0064 0.2627 0.0622 0.3292 0.1851l0.8587 1.5819c0.141 0.2608 0.413 0.4021 0.7105 0.3647 0.2973-0.0344 0.5319-0.2345 0.6151-0.5222l0.5673-1.9582 2.0015-0.3879c0.294-0.0568 0.5146-0.2723 0.5757-0.5653 0.0612-0.2931-0.0535-0.5752-0.299-0.7406l-1.4978-0.9983c-0.1163-0.0773-0.1735-0.2057-0.1545-0.3445l0.244-1.7956c0.0406-0.2968-0.0953-0.5708-0.3537-0.716s-0.5656-0.1216-0.801 0.0651l-1.4305 1.1258c-0.1114 0.0877-0.2505 0.1045-0.3766 0.0447l-1.6301-0.7645c-0.2698-0.1263-0.5723-0.0787-0.7952 0.1248-0.2305 0.2078-0.3038 0.5062-0.2024 0.7863z" fill="url(#i)"/>
            <path d="m16.493 86.55-0.2851 1.7777c-0.0214 0.138-0.1156 0.2439-0.2487 0.2863l-1.7355 0.5493c-0.2868 0.0896-0.4792 0.3302-0.5045 0.6256-0.0253 0.2953 0.1247 0.5618 0.3929 0.6952l1.6219 0.8084c0.1254 0.0624 0.1994 0.1819 0.1979 0.3216l-0.0173 1.7999c-0.0034 0.2965 0.1658 0.552 0.444 0.6638 0.2767 0.1143 0.579 0.0532 0.7913-0.1579l1.4467-1.4365 1.9381 0.6325c0.2846 0.0931 0.5821 0.0118 0.7778-0.2147s0.2324-0.5288 0.0981-0.7926l-0.8247-1.5999c-0.0642-0.124-0.0519-0.2641 0.0321-0.3762l1.0851-1.4513c0.1796-0.2398 0.1938-0.5454 0.0384-0.7978-0.1554-0.2523-0.4355-0.3808-0.7319-0.3318l-1.7972 0.2897c-0.14 0.0225-0.2697-0.0303-0.3509-0.1438l-1.054-1.4597c-0.1745-0.2415-0.4621-0.3467-0.7558-0.277-0.3024 0.0697-0.5114 0.2951-0.5587 0.5892z" fill="url(#f)"/>
            <path d="m49.456 86.8-0.5659 1.314c-0.0434 0.1021-0.1388 0.1663-0.2534 0.1746l-1.4928 0.1054c-0.2465 0.0164-0.4461 0.1663-0.5225 0.3886s-7e-3 0.4545 0.1823 0.606l1.1439 0.9172c0.0885 0.0708 0.125 0.1762 0.0972 0.2832l-0.3559 1.38c-0.059 0.2272 0.0278 0.4544 0.2292 0.5911 0.1996 0.1383 0.453 0.1466 0.6631 0.0231l1.4303-0.8398 1.4303 0.8398c0.2101 0.1235 0.4635 0.1152 0.6631-0.0231 0.1997-0.1383 0.2865-0.3639 0.2292-0.5911l-0.3559-1.38c-0.0277-0.107 0.0087-0.2124 0.0972-0.2832l1.144-0.9172c0.1892-0.1515 0.2586-0.3837 0.1822-0.606s-0.276-0.3722-0.5225-0.3886l-1.4928-0.1054c-0.1163-0.0083-0.21-0.0725-0.2534-0.1746l-0.5659-1.314c-0.0938-0.2174-0.3038-0.3508-0.552-0.3508-0.2552-0.0016-0.4652 0.1334-0.559 0.3508z" fill="url(#e)"/>
            <path d="m87.007 29.386 0.2173 1.7874c0.0175 0.1385-0.0437 0.2663-0.16 0.3438l-1.5161 1.0075c-0.2509 0.1654-0.3692 0.4498-0.312 0.7406 0.0573 0.2908 0.2752 0.5055 0.5698 0.5596l1.7821 0.3288c0.1378 0.0252 0.2419 0.1197 0.279 0.2543l0.4808 1.7346c0.0787 0.2859 0.3119 0.4847 0.6102 0.5153 0.2975 0.0334 0.5711-0.1089 0.7169-0.3705l0.9933-1.7803 2.0374 0.0724c0.2993 0.0108 0.5627-0.1496 0.6882-0.4214 0.1255-0.2717 0.0773-0.5724-0.1247-0.7888l-1.2348-1.3097c-0.0959-0.1015-0.1228-0.2395-0.073-0.3704l0.6418-1.6947c0.1063-0.2801 0.0355-0.5776-0.1836-0.7772-0.2191-0.1997-0.5237-0.2458-0.7951-0.1168l-1.6471 0.7751c-0.1284 0.0603-0.2676 0.0455-0.377-0.0412l-1.4164-1.1116c-0.2344-0.1838-0.5398-0.2056-0.8028-0.0574-0.2714 0.1506-0.41 0.4249-0.3742 0.7206z" fill="url(#l)"/>
            <path d="m61.254 3.7608 0.2173 1.7873c0.0175 0.13852-0.0437 0.26636-0.16 0.34384l-1.5161 1.0075c-0.2509 0.16533-0.3692 0.4498-0.312 0.74061 0.0573 0.29081 0.2752 0.50546 0.5698 0.5596l1.7821 0.32874c0.1378 0.02525 0.2419 0.11973 0.279 0.25438l0.4808 1.7346c0.0787 0.2859 0.3119 0.4847 0.6102 0.5152 0.2975 0.0334 0.5711-0.1088 0.7169-0.3704l0.9933-1.7804 2.0374 0.07237c0.2993 0.01082 0.5627-0.14957 0.6882-0.42133s0.0773-0.57241-0.1247-0.78887l-1.2348-1.3096c-0.0959-0.10148-0.1228-0.23949-0.073-0.37045l0.6418-1.6947c0.1063-0.28007 0.0355-0.57763-0.1836-0.77724s-0.5237-0.24572-0.7951-0.11671l-1.6471 0.77503c-0.1284 0.06036-0.2676 0.04549-0.377-0.04122l-1.4164-1.1116c-0.2344-0.1838-0.5398-0.20552-0.8028-0.05732-0.2714 0.15053-0.41 0.42487-0.3742 0.7206z" fill="url(#k)"/>
            <path d="m29.194 70.144-1.75 1.7382c-0.1351 0.1354-0.3248 0.1767-0.5064 0.1162l-2.3646-0.7921c-0.3899-0.1323-0.797-0.021-1.0633 0.2855-0.2664 0.3065-0.3152 0.7227-0.126 1.0868l1.1434 2.2036c0.0886 0.1703 0.074 0.3624-0.0404 0.5157l-1.4714 1.9788c-0.243 0.3256-0.2618 0.745-0.044 1.0932 0.2141 0.3498 0.598 0.5261 1.0036 0.4636l2.7606-0.4231 1.6354 2.2641c0.24 0.3328 0.6349 0.4827 1.0344 0.3898 0.3994-0.0928 0.6839-0.3979 0.7482-0.7983l0.3777-2.4368c0.029-0.1891 0.1557-0.3342 0.3391-0.3906l2.3724-0.7312c0.3923-0.1207 0.6546-0.4474 0.6861-0.8523 0.0316-0.4048-0.1747-0.773-0.5425-0.958l-2.2234-1.1293c-0.1732-0.088-0.2742-0.251-0.2725-0.4423l0.0108-2.4665c0.0016-0.4081-0.2318-0.7567-0.6132-0.9164-0.3911-0.1669-0.8043-0.086-1.094 0.2014z" fill="url(#g)"/>
            <path d="m20.726 60.624 1.3027-3.8621c0.0996-0.3 0.3496-0.5012 0.6627-0.5459l4.0804-0.5761c0.67393-0.0924 1.1936-0.5577 1.3608-1.2075 0.16721-0.6499-0.068-1.3011-0.61676-1.6995l-3.318-2.4126c-0.2567-0.1862-0.377-0.4809-0.3212-0.7921l0.713-4.0119c0.1186-0.6607-0.1633-1.2947-0.7426-1.6485-0.5749-0.3588-1.2726-0.3357-1.8259 0.0561l-3.7681 2.665-4.0899-2.1385c-0.6006-0.3145-1.2951-0.2444-1.817 0.188-0.5218 0.4323-0.717 1.0934-0.5161 1.7328l1.2419 3.8809c0.0968 0.301 0.0168 0.6091-0.2128 0.8279l-2.9665 2.8336c-0.4907 0.4681-0.6369 1.1449-0.3845 1.7666s0.8294 1.0135 1.5097 1.0152l4.1208 0.0267c0.321 0.0021 0.5908 0.1685 0.7296 0.4525l1.8062 3.6539c0.2991 0.6044 0.9016 0.9472 1.5835 0.9015 0.7012-0.0423 1.2523-0.4671 1.4681-1.106z" fill="url(#h)"/>
            <path d="m86.045 72.563-3.9077 1.1588c-0.3026 0.0913-0.6111 0.0028-0.8279-0.2275l-2.8205-3.0044c-0.4637-0.4977-1.1433-0.6546-1.7709-0.4172-0.6275 0.2375-1.0245 0.8048-1.0343 1.4829l-0.0619 4.1019c-0.0044 0.3171-0.1761 0.5852-0.4627 0.7188l-3.6906 1.727c-0.6085 0.2836-0.9644 0.8791-0.9201 1.5564 0.0376 0.6767 0.4582 1.2338 1.0972 1.4605l4.3485 1.5462 0.6066 4.5752c0.0887 0.6722 0.546 1.1996 1.1999 1.3774 0.654 0.1777 1.3069-0.0434 1.714-0.5758l2.4578-3.25c0.1904-0.2525 0.4883-0.3645 0.7994-0.3028l4.0249 0.7937c0.6652 0.1317 1.3027-0.1385 1.6657-0.7028s0.351-1.2617-0.0392-1.8189l-2.3511-3.3844c-0.1831-0.2637-0.2024-0.5801-0.0501-0.8571l1.9473-3.5807c0.3219-0.5926 0.2553-1.2825-0.1747-1.8137-0.4383-0.549-1.103-0.7549-1.7496-0.5635z" fill="url(#d)"/>
            <path d="m83.767 20.416-3.8933-0.2365c-0.302-0.0169-0.5504-0.1974-0.67-0.4755l-1.5535-3.6246c-0.2541-0.5993-0.8139-0.9628-1.4559-0.9546-0.6421 0.0082-1.1847 0.3885-1.4154 0.995l-1.3978 3.6685c-0.1077 0.2838-0.3498 0.4687-0.6512 0.495l-3.884 0.3456c-0.64 0.0558-1.155 0.4749-1.3368 1.0986-0.1875 0.6207 0.0085 1.2594 0.5089 1.6724l3.4046 2.8132-0.9515 4.3129c-0.1402 0.6335 0.0985 1.2575 0.6284 1.6312 0.5299 0.3738 1.1895 0.3886 1.7297 0.043l3.2737-2.1184c0.2538-0.1648 0.5584-0.168 0.8179-0.0107l3.3598 2.0307c0.5551 0.336 1.2169 0.3017 1.7279-0.087 0.5111-0.3887 0.7285-1.0198 0.5599-1.6485l-1.0069-3.8129c-0.0783-0.297 0.0078-0.5879 0.2354-0.7871l2.9228-2.5829c0.4833-0.4275 0.6492-1.0698 0.4363-1.6882-0.2145-0.6371-0.7449-1.0398-1.389-1.0792z" fill="url(#m)"/>
            <path d="m53.922 45.492-3.9163-8.4915-3.9287 8.4915c-0.0497 0.1243-0.1243 0.2487-0.1865 0.3606l-2.1881-2.1882c-0.277-0.2753-0.652-0.4293-1.0426-0.4282-0.3905 0.0012-0.7646 0.1574-1.0399 0.4344s-0.4294 0.652-0.4282 1.0425c0.0012 0.3906 0.1574 0.7647 0.4344 1.04l2.1757 2.1633-0.2486 0.1243-0.0622 0.0249-8.4915 3.9287 8.4915 3.9287 0.2984 0.1368-2.1633 2.1881c-0.2753 0.2753-0.43 0.6488-0.43 1.0381 0 0.3894 0.1547 0.7628 0.43 1.0382 0.2753 0.2753 0.6488 0.43 1.0381 0.43 0.3894 0 0.7628-0.1547 1.0382-0.43l2.1881-2.1882 0.1865 0.373 3.9287 8.4791 3.9163-8.4915 0.1616-0.2984 2.1136 2.126c0.2753 0.2769 0.6494 0.4332 1.0399 0.4344 0.3906 0.0011 0.7656-0.1529 1.0426-0.4282 0.2769-0.2753 0.4332-0.6494 0.4344-1.04 0.0011-0.3905-0.1529-0.7655-0.4282-1.0425l-2.1384-2.1384 0.3729-0.1865 8.4791-3.9287-8.4915-3.9287-0.3605-0.1741 2.1384-2.1508c0.2753-0.2754 0.43-0.6488 0.43-1.0382 0-0.3893-0.1547-0.7628-0.43-1.0381-0.1364-0.1363-0.2982-0.2445-0.4763-0.3182-0.1782-0.0738-0.3691-0.1118-0.5619-0.1118-0.3893 0-0.7628 0.1547-1.0381 0.43l-2.126 2.1136c-0.0478-0.0817-0.0934-0.1646-0.1367-0.2487zm-3.9287 0.4476-0.5222 1.1189c-0.9004 1.9486-2.465 3.5132-4.4136 4.4136l-1.1189 0.5222 1.1189 0.5222c1.9486 0.9004 3.5132 2.4649 4.4136 4.4135l0.5222 1.119 0.5097-1.119c0.9035-1.9507 2.4728-3.5155 4.4261-4.4135l1.1189-0.5222-1.1189-0.5222c-1.9533-0.898-3.5226-2.4628-4.4261-4.4136z" fill="url(#b)"/>
        </g>
        <g fill="url(#b)">
            <path d="m62.7 41.339c0.2769-0.277 0.4325-0.6526 0.4325-1.0443s-0.1556-0.7674-0.4325-1.0444c-0.277-0.2769-0.6527-0.4326-1.0444-0.4326s-0.7673 0.1557-1.0443 0.4326l-0.6962 0.7087c-0.1364 0.1363-0.2445 0.2982-0.3183 0.4763s-0.1118 0.369-0.1118 0.5618 0.038 0.3837 0.1118 0.5618c0.0738 0.1782 0.1819 0.34 0.3183 0.4763 0.1363 0.1364 0.2981 0.2445 0.4762 0.3183 0.1782 0.0738 0.3691 0.1118 0.5619 0.1118s0.3837-0.038 0.5618-0.1118 0.34-0.1819 0.4763-0.3183z"/>
            <path d="m40.222 42.272c-0.5594 0.5719-1.4919 0.5719-2.0762 0l-0.6963-0.6963c-0.1371-0.1371-0.2459-0.2999-0.3201-0.4791s-0.1124-0.3713-0.1124-0.5652c0-0.194 0.0382-0.386 0.1124-0.5652s0.183-0.342 0.3201-0.4792c0.277-0.2769 0.6527-0.4325 1.0444-0.4325 0.1939 0 0.386 0.0382 0.5652 0.1124s0.342 0.183 0.4791 0.3201l0.6963 0.7087c0.5719 0.5719 0.5719 1.4919 0 2.0763z"/>
            <path d="m40.222 61.716c-0.1362-0.1365-0.2981-0.2447-0.4762-0.3186-0.1781-0.0738-0.3691-0.1119-0.5619-0.1119s-0.3838 0.0381-0.5619 0.1119c-0.1781 0.0739-0.34 0.1821-0.4762 0.3186l-0.6963 0.6962c-0.1371 0.1372-0.2459 0.3-0.3201 0.4792s-0.1124 0.3712-0.1124 0.5652c0 0.1939 0.0382 0.386 0.1124 0.5652s0.183 0.342 0.3201 0.4791c0.1372 0.1372 0.3 0.2459 0.4792 0.3202 0.1792 0.0742 0.3712 0.1124 0.5652 0.1124 0.1939 0 0.386-0.0382 0.5652-0.1124 0.1792-0.0743 0.342-0.183 0.4791-0.3202l0.6963-0.7086c0.5719-0.5719 0.5719-1.492 0-2.0763z"/>
            <path d="m62.7 62.648c0.2769 0.277 0.4325 0.6527 0.4325 1.0444s-0.1556 0.7674-0.4325 1.0443c-0.277 0.277-0.6527 0.4326-1.0444 0.4326s-0.7673-0.1556-1.0443-0.4326l-0.6962-0.7086c-0.1364-0.1364-0.2445-0.2982-0.3183-0.4763-0.0738-0.1782-0.1118-0.3691-0.1118-0.5619s0.038-0.3837 0.1118-0.5618 0.1819-0.34 0.3183-0.4763c0.1363-0.1363 0.2981-0.2445 0.4762-0.3182 0.1782-0.0738 0.3691-0.1118 0.5619-0.1118s0.3837 0.038 0.5618 0.1118c0.1781 0.0737 0.34 0.1819 0.4763 0.3182z"/>
        </g>
    </g>
</svg>
